<?xml version="1.0" standalone="no"?><!DOCTYPE svg PUBLIC "-//W3C//DTD SVG 1.1//EN" "http://www.w3.org/Graphics/SVG/1.1/DTD/svg11.dtd"><svg class="icon" width="200px" height="153.18px" viewBox="0 0 1337 1024" version="1.1" xmlns="http://www.w3.org/2000/svg"><path d="M1313.750204 667.491265c0-356.947592-289.363592-646.321633-646.321633-646.321632C310.48098 21.169633 21.106939 310.543673 21.106939 667.491265c0 356.958041 289.363592 333.00898 646.321632 333.00898 356.958041 0 646.321633 23.949061 646.321633-333.00898z" fill="#C3DDF7" /><path d="M910.252408 659.842612H424.615184c-30.960327 0-56.288653 25.328327-56.288653 56.288653v279.719184c89.443265 6.823184 191.174531 4.639347 299.10204 4.639347 107.937959 0 209.669224 2.173388 299.11249-4.628898V716.131265c0-30.960327-25.328327-56.288653-56.288653-56.288653z" fill="#3F4963" /><path d="M372.495673 452.879673m-38.222367 0a38.222367 38.222367 0 1 0 76.444735 0 38.222367 38.222367 0 1 0-76.444735 0Z" fill="#3F4963" /><path d="M962.382367 452.879673m-38.222367 0a38.222367 38.222367 0 1 0 76.444735 0 38.222367 38.222367 0 1 0-76.444735 0Z" fill="#3F4963" /><path d="M413.372082 586.438531h-81.773715a21.106939 21.106939 0 0 1 0-42.213878h81.773715a21.106939 21.106939 0 1 1 0 42.213878zM1003.279673 586.438531h-81.763265a21.106939 21.106939 0 1 1 0-42.213878h81.763265a21.106939 21.106939 0 1 1 0 42.213878z" fill="#FF9596" /><path d="M619.582694 560.033959c-38.023837 0-68.963265-30.92898-68.963265-68.963265a21.106939 21.106939 0 0 1 42.213877 0 26.770286 26.770286 0 0 0 26.749388 26.749388 26.780735 26.780735 0 0 0 26.749388-26.749388 21.106939 21.106939 0 0 1 42.213877 0c0 38.034286-30.92898 68.963265-68.963265 68.963265z" fill="#3F4963" /><path d="M715.295347 560.033959c-38.034286 0-68.963265-30.92898-68.963265-68.963265a21.106939 21.106939 0 0 1 42.213877 0 26.770286 26.770286 0 0 0 26.749388 26.749388 26.780735 26.780735 0 0 0 26.749388-26.749388 21.106939 21.106939 0 1 1 42.213877 0c0 38.034286-30.92898 68.963265-68.963265 68.963265z" fill="#3F4963" /><path d="M1063.465796 360.134531a21.106939 21.106939 0 0 1-14.931592-36.038531l31.984327-31.973878a21.106939 21.106939 0 0 1 29.852734 29.852735l-31.973877 31.973878a21.023347 21.023347 0 0 1-14.931592 6.185796zM221.716898 496.117551a21.044245 21.044245 0 0 1-14.931592-6.185796l-31.973877-31.973877a21.106939 21.106939 0 1 1 29.842285-29.852735l31.984327 31.973877a21.106939 21.106939 0 0 1-14.921143 36.038531zM131.907918 701.753469a21.106939 21.106939 0 0 1-14.921142-36.03853l57.824653-57.824653a21.106939 21.106939 0 1 1 29.842285 29.842285l-57.814204 57.824653a21.002449 21.002449 0 0 1-14.931592 6.185796zM480.266449 255.477551a21.033796 21.033796 0 0 1-14.921143-6.185796L407.510204 191.467102a21.106939 21.106939 0 1 1 29.842286-29.842286L495.187592 219.428571a21.106939 21.106939 0 0 1-14.921143 36.038531zM1129.419755 553.942204a21.106939 21.106939 0 0 1-14.931592-36.038531l57.824653-57.824653a21.106939 21.106939 0 0 1 29.852735 29.852735l-57.824653 57.824653a21.044245 21.044245 0 0 1-14.921143 6.185796zM1216.156735 759.578122a21.054694 21.054694 0 0 1-14.931592-6.185795l-57.824653-57.824654a21.106939 21.106939 0 1 1 29.852734-29.852734l57.824654 57.824653a21.106939 21.106939 0 0 1-14.921143 36.03853zM857.631347 226.565224a21.106939 21.106939 0 0 1-14.921143-36.03853l40.259918-40.24947a21.106939 21.106939 0 1 1 29.842286 29.852735l-40.259918 40.259919a21.023347 21.023347 0 0 1-14.921143 6.175346zM814.309878 350.981224A21.033796 21.033796 0 0 1 799.378286 344.816327l-40.24947-40.270368a21.106939 21.106939 0 1 1 29.852735-29.842286l40.249469 40.259919a21.106939 21.106939 0 0 1-14.921142 36.028081zM529.376653 393.341388a21.106939 21.106939 0 0 1-14.921143-36.038531l57.824653-57.824653a21.106939 21.106939 0 0 1 29.842286 29.852735l-57.814204 57.824653a21.023347 21.023347 0 0 1-14.931592 6.185796zM250.629224 880.357878a21.023347 21.023347 0 0 1-14.931591-6.185796l-57.824653-57.824653a21.106939 21.106939 0 1 1 29.852734-29.852735l57.824653 57.824653a21.106939 21.106939 0 0 1-14.921143 36.038531zM638.505796 196.001959a21.106939 21.106939 0 0 1-14.921143-36.03853l57.824653-57.814205a21.106939 21.106939 0 0 1 29.852735 29.852735l-57.824653 57.824653a21.033796 21.033796 0 0 1-14.931592 6.175347zM268.538776 332.643265a21.106939 21.106939 0 0 1-14.931592-36.03853l43.812571-43.823021a21.106939 21.106939 0 1 1 29.852735 29.852735l-43.823021 43.82302a21.033796 21.033796 0 0 1-14.921142 6.185796zM1082.273959 867.43249a21.106939 21.106939 0 0 1-14.931592-36.038531l31.984327-31.973877a21.106939 21.106939 0 0 1 29.852735 29.852734l-31.973878 31.973878a21.033796 21.033796 0 0 1-14.931592 6.185796z" fill="#2F3953" /><path d="M763.151673 469.963755a21.106939 21.106939 0 0 0-21.106938 21.106939 26.770286 26.770286 0 0 1-26.749388 26.749388 26.780735 26.780735 0 0 1-26.749388-26.749388 21.106939 21.106939 0 1 0-42.213877 0 26.780735 26.780735 0 0 1-26.749388 26.749388 26.780735 26.780735 0 0 1-26.749388-26.749388 21.106939 21.106939 0 0 0-42.213877 0c0 38.034286 30.939429 68.963265 68.963265 68.963265a68.722939 68.722939 0 0 0 47.856326-19.382857 68.702041 68.702041 0 0 0 47.856327 19.382857c38.034286 0 68.963265-30.939429 68.963265-68.963265a21.106939 21.106939 0 0 0-21.106939-21.106939z m-390.666449-55.316898a38.222367 38.222367 0 1 0 0 76.434286 38.222367 38.222367 0 0 0 0-76.434286z m589.907592 0a38.222367 38.222367 0 1 0 0 76.434286 38.222367 38.222367 0 0 0 0-76.434286z m176.984817-219.094204C1013.310694 69.485714 845.709061 0.062694 667.428571 0.062694c-178.270041 0-345.882122 69.433469-471.938612 195.489959C69.42302 321.609143 0 489.221224 0 667.480816 0 747.72898 13.897143 811.572245 42.496 862.667755c26.812082 47.91902 65.83902 83.445551 119.327347 108.617143 99.401143 46.790531 237.46351 50.667102 382.108735 50.667102 19.748571 0 39.810612-0.083592 60.133877-0.167184 41.691429-0.167184 85.033796-0.167184 126.746123 0 20.344163 0.083592 40.395755 0.167184 60.123428 0.167184h0.052245c144.634776 0 282.686694-3.88702 382.05649-50.656653 53.498776-25.171592 92.525714-60.708571 119.327347-108.617143 28.588408-51.09551 42.485551-114.938776 42.485551-195.17649 0-178.270041-69.42302-345.882122-195.47951-471.938612z m-193.943511 780.643265c-49.235592 3.009306-101.355102 3.531755-154.435918 3.531755h-0.062694c-19.675429 0-39.674776-0.083592-59.945796-0.167183-20.918857-0.083592-42.130286-0.177633-63.561143-0.177633-21.441306 0-42.631837 0.094041-63.529795 0.177633-20.291918 0.083592-40.291265 0.167184-59.977143 0.167183-53.112163 0-105.242122-0.522449-154.498613-3.531755v-260.075102a35.213061 35.213061 0 0 1 35.181715-35.171265h485.637224a35.213061 35.213061 0 0 1 35.181714 35.181714v260.064653z m209.637878-43.10204c-46.602449 21.921959-103.936 33.593469-167.424 39.789714V716.131265c0-42.684082-34.721959-77.395592-77.395592-77.395592H424.615184c-42.684082 0-77.406041 34.71151-77.406041 77.395592v256.752327c-63.477551-6.196245-120.821551-17.867755-167.392653-39.810612-59.078531-27.794286-137.602612-85.577143-137.602612-265.581715 0-166.995592 65.034449-324.001959 183.128816-442.096326 118.083918-118.073469 275.090286-183.118367 442.096326-183.118368 166.995592 0 323.99151 65.034449 442.085878 183.128817 118.083918 118.083918 183.118367 275.090286 183.118367 442.096326 0 180.01502-78.513633 237.797878-137.571265 265.592164z" fill="#000000" /></svg>