<?xml version="1.0" standalone="no"?><!DOCTYPE svg PUBLIC "-//W3C//DTD SVG 1.1//EN" "http://www.w3.org/Graphics/SVG/1.1/DTD/svg11.dtd"><svg class="icon" width="200px" height="200.00px" viewBox="0 0 1024 1024" version="1.1" xmlns="http://www.w3.org/2000/svg"><path d="M454.304005 178.720066V426.400047h115.39199V178.720066c44.191997-0.904 79.735994-36.991997 79.735994-81.399994 0-44.983996-36.463997-81.447994-81.439993-81.447993a81.151994 81.151994 0 0 0-55.999996 22.327998 81.151994 81.151994 0 0 0-55.983996-22.327998c-44.983996 0-81.447994 36.463997-81.447993 81.447993 0 44.415997 35.551997 80.495994 79.743994 81.407994z" fill="#C3DDF7" /><path d="M625.855991 398.776049c0-62.879995-50.975996-113.863991-113.855991-113.863991-62.879995 0-113.855991 50.983996-113.855991 113.863991 0 149.367988-133.77599 158.687988-133.77599 361.719972 0 136.759989 110.871991 247.631981 247.631981 247.63198s247.623981-110.871991 247.623981-247.63198c0-203.039984-133.76799-212.351983-133.76799-361.719972z" fill="#FDBA55" /><path d="M372.384011 706.888025m-28.383998 0a28.383998 28.383998 0 1 0 56.767996 0 28.383998 28.383998 0 1 0-56.767996 0Z" fill="#3F4963" /><path d="M402.752009 797.928018h-60.719996a15.871999 15.871999 0 1 1 0-31.751998h60.719996a15.871999 15.871999 0 1 1 0 31.751998z" fill="#FF6376" /><path d="M651.623989 706.888025m-28.383998 0a28.383998 28.383998 0 1 0 56.767996 0 28.383998 28.383998 0 1 0-56.767996 0Z" fill="#3F4963" /><path d="M681.983987 797.928018h-60.719996a15.871999 15.871999 0 1 1 0-31.751998h60.719996a15.871999 15.871999 0 1 1 0 31.751998z" fill="#FF6376" /><path d="M483.792002 773.78402a44.143997 44.143997 0 0 1-44.095996-44.087997 15.871999 15.871999 0 1 1 31.751997 0c0 6.799999 5.536 12.335999 12.343999 12.335999 6.799999 0 12.343999-5.536 12.343999-12.335999a15.871999 15.871999 0 1 1 31.743998 0 44.143997 44.143997 0 0 1-44.087997 44.079997z" fill="#3F4963" /><path d="M540.223998 773.78402a44.143997 44.143997 0 0 1-44.087997-44.087997 15.871999 15.871999 0 1 1 31.743998 0c0 6.799999 5.536 12.335999 12.343999 12.335999 6.799999 0 12.343999-5.536 12.343999-12.335999a15.871999 15.871999 0 1 1 31.743997 0 44.143997 44.143997 0 0 1-44.087996 44.079997z" fill="#3F4963" /><path d="M542.503998 529.696039a15.879999 15.879999 0 0 1-14.471999-9.328l-24.775998-54.735995a15.871999 15.871999 0 1 1 28.927997-13.087999l24.775998 54.727995a15.871999 15.871999 0 0 1-14.455998 22.423999zM619.159992 584.544034a15.879999 15.879999 0 0 1-14.463999-9.327999l-38.959997-86.039993a15.879999 15.879999 0 0 1 28.927998-13.103999l38.959996 86.039993a15.871999 15.871999 0 0 1-14.463998 22.431998z" fill="#2F3953" opacity=".2" /><path d="M372.392011 678.504027a28.383998 28.383998 0 1 0 0 56.767996 28.383998 28.383998 0 0 0 0-56.767996z m325.503974-138.895989c-30.135998-41.343997-56.167996-77.039994-56.167995-140.831989 0-44.231997-22.263998-83.343993-56.159996-106.767992V193.016065c45.175996-8.383999 79.743994-48.431996 79.743994-95.687993C665.303988 43.656077 621.647991 0.00008 567.983996 0.00008c-20.239998 0-39.679997 6.224-55.983996 17.727999A96.839992 96.839992 0 0 0 456.000004 0.00008c-53.663996 0-97.319992 43.663997-97.319992 97.319992 0 47.263996 34.567997 87.311993 79.735994 95.695993V292.000057c-33.887997 23.423998-56.159996 62.535995-56.159996 106.767992 0 63.791995-26.023998 99.487992-56.159995 140.831989-36.375997 49.879996-77.599994 106.423992-77.599994 220.895983C248.496021 905.800009 366.696011 1024 512 1024s263.503979-118.207991 263.503979-263.503979c0-114.463991-41.231997-171.007987-77.607994-220.887983zM390.440009 97.328072c0-36.159997 29.407998-65.575995 65.567995-65.575994 16.823999 0 32.831997 6.384 45.071997 17.975998a15.871999 15.871999 0 0 0 21.839998 0 65.303995 65.303995 0 0 1 45.063997-17.983998c36.159997 0 65.575995 29.423998 65.575995 65.575994 0 35.415997-28.799998 64.799995-64.191995 65.543995a15.871999 15.871999 0 0 0-15.551999 15.863999V276.000058a129.01599 129.01599 0 0 0-83.647994 0V178.728066c0-8.639999-6.911999-15.687999-15.543999-15.863999-35.391997-0.736-64.183995-30.135998-64.183995-65.543995zM511.992 992.240002c-127.78399 0-231.751982-103.959992-231.751982-231.751981 0-104.111992 36.351997-153.975988 71.511995-202.191985 30.607998-41.975997 62.263995-85.391993 62.263995-159.527987 0-54.031996 43.951997-97.983992 97.975992-97.983992 54.031996 0 97.983992 43.959997 97.983992 97.983992 0 74.135994 31.655998 117.551991 62.271995 159.527987 35.151997 48.215996 71.503994 98.079992 71.503995 202.199985 0 127.78399-103.967992 231.743982-231.759982 231.743981z m139.623989-313.743975a28.383998 28.383998 0 1 0 0 56.767996 28.383998 28.383998 0 0 0 0-56.767996z m-83.175993 35.319997a15.871999 15.871999 0 0 0-15.871999 15.871999c0 6.799999-5.536 12.335999-12.343999 12.335999s-12.343999-5.536-12.343999-12.335999a15.871999 15.871999 0 1 0-31.743998 0c0 6.799999-5.536 12.335999-12.343999 12.335999s-12.343999-5.536-12.343999-12.335999a15.871999 15.871999 0 1 0-31.751997 0 44.135997 44.135997 0 0 0 44.095996 44.079997c10.719999 0 20.559998-3.848 28.215998-10.24a43.871997 43.871997 0 0 0 28.215998 10.24 44.143997 44.143997 0 0 0 44.087996-44.079997 15.871999 15.871999 0 0 0-15.871998-15.871999z" fill="#000000" /></svg>